HIERARCHY
ROOT Hips
{
	OFFSET 0.000000 0.000000 0.000000
	CHANNELS 6 Xposition Yposition Zposition Zrotation Yrotation Xrotation 
	JOINT LHipJoint
	{
		OFFSET 0.000000 0.000000 0.000000
		CHANNELS 3 Zrotation Yrotation Xrotation
		JOINT LeftUpLeg
		{
			OFFSET 1.363060 -1.794630 0.839290
			CHANNELS 3 Zrotation Yrotation Xrotation
			JOINT LeftLeg
			{
				OFFSET 2.448110 -6.726130 0.000000
				CHANNELS 3 Zrotation Yrotation Xrotation
				JOINT LeftFoot
				{
					OFFSET 2.562200 -7.039590 0.000000
					CHANNELS 3 Zrotation Yrotation Xrotation
					JOINT LeftToeBase
					{
						OFFSET 0.157640 -0.433110 2.322550
						CHANNELS 3 Zrotation Yrotation Xrotation
						End Site
						{
							OFFSET 0.000000 0.000000 0.000000
						}
					}
				}
			}
		}
	}
	JOINT RHipJoint
	{
		OFFSET 0.000000 0.000000 0.000000
		CHANNELS 3 Zrotation Yrotation Xrotation
		JOINT RightUpLeg
		{
			OFFSET -1.305520 -1.794630 0.839290
			CHANNELS 3 Zrotation Yrotation Xrotation
			JOINT RightLeg
			{
				OFFSET -2.542530 -6.985550 0.000000
				CHANNELS 3 Zrotation Yrotation Xrotation
				JOINT RightFoot
				{
					OFFSET -2.568260 -7.056230 0.000000
					CHANNELS 3 Zrotation Yrotation Xrotation
					JOINT RightToeBase
					{
						OFFSET -0.164730 -0.452590 2.363150
						CHANNELS 3 Zrotation Yrotation Xrotation
						End Site
						{
							OFFSET 0.000000 0.000000 0.000000
						}
					}
				}
			}
		}
	}
}
MOTION
Frames: 11
Frame Time: 0.008333
-20.721693 16.823160 -0.592968 113.930077 87.462809 134.306317 -7.308280 1.879958 7.922841 -11.584302 -14.937809 -46.537803 -2.958803 -0.368703 18.010665 0.668795 1.954418 -5.512582 0.395000 -0.000000 -22.034700 11.409838 -4.821324 1.004108 6.255336 -9.883327 1.178218 1.049061 -1.071238 15.155129 0.215339 4.582195 18.689708 1.764200 0.000000 -83.511500
-20.509552 16.846640 -0.593435 112.560288 87.121216 132.644065 -7.246876 1.957917 7.869568 -12.126878 -15.054161 -45.542936 -2.953908 -0.312663 18.614823 0.727604 2.189513 -5.896626 0.370799 0.000000 -22.031300 11.657156 -4.810707 0.890044 5.423632 -10.676492 0.358794 0.744488 -1.275820 17.554750 0.074259 5.259126 21.645847 2.401400 -0.000000 -84.495800
-20.299154 16.868054 -0.595998 111.759593 86.778428 131.548278 -7.207180 2.033290 7.806337 -12.695800 -15.084993 -44.542932 -2.959514 -0.259169 19.166494 0.771749 2.348027 -6.270366 0.338699 0.000000 -22.016500 11.879011 -4.759599 0.774946 4.641149 -11.480825 -0.557013 0.449171 -1.438704 20.094973 -0.110438 5.788277 24.529823 3.022300 0.000000 -84.300200
-20.090810 16.887211 -0.600419 111.375563 86.434779 130.867563 -7.185668 2.106924 7.734250 -13.284326 -15.037978 -43.528225 -2.974919 -0.210144 19.651522 0.802306 2.438147 -6.627347 0.301600 0.000000 -21.947199 12.074032 -4.666926 0.656994 3.913736 -12.286958 -1.561062 0.176880 -1.561110 22.767823 -0.328054 6.067536 27.201125 3.527800 -0.000000 -82.806600
-19.884909 16.904077 -0.607013 111.383443 86.105152 130.585406 -7.185178 2.178109 7.654629 -13.869216 -14.907528 -42.511471 -2.997372 -0.165929 20.074595 0.818859 2.455248 -6.970336 0.260500 -0.000000 -21.782500 12.234120 -4.539525 0.540151 3.274206 -13.061498 -2.651745 -0.060587 -1.650688 25.558573 -0.564733 5.971266 29.507245 3.791800 0.000000 -80.018501
-19.681266 16.918783 -0.615765 111.705943 85.797393 130.629946 -7.204670 2.246519 7.569793 -14.433755 -14.700450 -41.495350 -3.024742 -0.127949 20.432723 0.822937 2.405715 -7.302370 0.216999 0.000000 -21.484800 12.357424 -4.386532 0.424863 2.736459 -13.786460 -3.830686 -0.258164 -1.720480 28.454375 -0.806219 5.409392 31.300087 3.710000 0.000000 -76.102300
-19.480216 16.931604 -0.626552 112.256050 85.516868 130.919946 -7.241786 2.311725 7.482724 -14.963686 -14.429158 -40.481476 -3.055131 -0.097878 20.721605 0.816959 2.300525 -7.627662 0.172800 0.000001 -21.027800 12.445117 -4.218253 0.312143 2.306792 -14.444033 -5.101302 -0.417753 -1.785235 31.436543 -1.041237 4.343137 32.456686 3.228300 -0.000000 -71.394000
-19.281326 16.942955 -0.639168 112.936243 85.268052 131.363739 -7.293159 2.373110 7.396297 -15.447927 -14.109163 -39.471363 -3.087021 -0.077434 20.936225 0.803840 2.153283 -7.951350 0.128900 -0.000000 -20.401400 12.500639 -4.044054 0.204678 1.986813 -15.011912 -6.466619 -0.546463 -1.858005 34.479226 -1.262356 2.804334 32.895291 2.368100 0.000000 -66.329400
-19.084682 16.953334 -0.653303 113.644738 85.054841 131.865816 -7.355220 2.429863 7.313037 -15.877884 -13.756708 -38.467745 -3.119167 -0.068103 21.072345 0.786593 1.978542 -8.278242 0.086400 0.000000 -19.615200 12.528707 -3.871237 0.107161 1.774372 -15.463597 -7.928677 -0.653592 -1.947942 37.551315 -1.465001 0.897689 32.581401 1.227600 -0.000000 -61.330300
-18.889626 16.963334 -0.668669 114.276716 84.881188 132.326689 -7.424373 2.481212 7.234930 -16.248488 -13.387442 -37.472560 -3.150644 -0.071132 21.125644 0.768162 1.791277 -8.612100 0.045800 0.000000 -18.698400 12.534832 -3.704754 0.025224 1.662323 -15.774033 -9.486826 -0.747827 -2.059711 40.619041 -1.645727 -1.216519 31.524008 -0.039200 0.000000 -56.691900
-18.695991 16.973483 -0.684922 114.727291 84.750308 132.644471 -7.497293 2.526467 7.163058 -16.558696 -13.015168 -36.485816 -3.180761 -0.087332 21.092524 0.751277 1.606567 -8.954667 0.007500 -0.000000 -17.694600 12.524749 -3.547149 -0.035776 1.638157 -15.924361 -11.137257 -0.835585 -2.193882 43.646961 -1.801285 -3.356262 29.770398 -1.260800 0.000000 -52.536100
